<?xml version="1.0" encoding="utf-8"?>
<!-- Generator: Adobe Illustrator 26.0.1, SVG Export Plug-In . SVG Version: 6.00 Build 0)  -->
<svg version="1.1" id="图层_1" xmlns="http://www.w3.org/2000/svg" xmlns:xlink="http://www.w3.org/1999/xlink" x="0px" y="0px"
	 viewBox="0 0 200 200" style="enable-background:new 0 0 200 200;" xml:space="preserve">
<style type="text/css">
	.st0{fill:#FFB543;}
	.st1{fill:#FFFFFF;}
</style>
<circle class="st0" cx="102.1" cy="99.5" r="85.5"/>
<path class="st1" d="M147.9,52.1c-2.9-2.9-7.5-2.9-10.3,0L100,89.7L62.5,52.1c-2.9-2.9-7.5-2.9-10.3,0c-2.9,2.9-2.9,7.5,0,10.3
	L89.7,100l-37.5,37.5c-2.9,2.9-2.9,7.5,0,10.3c1.4,1.4,3.2,2.1,5.2,2.1c1.9,0,3.7-0.7,5.2-2.1l37.5-37.5l37.5,37.5
	c2.8,2.9,7.5,2.9,10.3,0c0,0,0,0,0,0c2.9-2.9,2.9-7.5,0-10.3L110.3,100l37.5-37.5C150.7,59.6,150.7,55,147.9,52.1z"/>
</svg>
