<?xml version="1.0" encoding="utf-8"?>
<!-- Generator: Adobe Illustrator 26.0.1, SVG Export Plug-In . SVG Version: 6.00 Build 0)  -->
<svg version="1.1" id="图层_1" xmlns="http://www.w3.org/2000/svg" xmlns:xlink="http://www.w3.org/1999/xlink" x="0px" y="0px"
	 viewBox="0 0 200 200" style="enable-background:new 0 0 200 200;" xml:space="preserve">
<style type="text/css">
	.st0{fill:#FFA115;}
	.st1{fill:#474A54;}
</style>
<path class="st0" d="M93.7,125.7c0,10.2,8.2,18.4,18.4,18.4s18.4-8.2,18.4-18.4c0,0,0,0,0,0c0-10.2-8.2-18.4-18.4-18.4
	C101.9,107.4,93.7,115.6,93.7,125.7C93.7,125.7,93.7,125.7,93.7,125.7z"/>
<path class="st0" d="M75.8,49.5c0,4.5,3.7,8.2,8.2,8.2c4.5,0,8.2-3.7,8.2-8.2s-3.7-8.2-8.2-8.2C79.5,41.3,75.8,44.9,75.8,49.5z"/>
<path class="st1" d="M172.9,56.1c5.4-8.1,14.5-24.2,8.8-33.6c-1.8-3-4.6-5-8.1-5.7c-7.4-1.5-17,3-28.8,10.9
	c-13.2-8.2-28.3-12.5-44-12.5c-46.2,0-83.8,37.6-83.8,83.8c0,5.7,0.6,11.4,1.7,16.9c0.7,3.2,3.8,5.3,7.1,4.7
	c3.2-0.7,5.3-3.8,4.7-7.1c0,0,0,0,0,0c-1-4.7-1.5-9.6-1.5-14.5c0-39.6,32.2-71.8,71.8-71.8c11.7,0,23,2.8,33.2,8.1
	c-16.7,12.7-78.9,62.2-113,123c0,0.1-0.1,0.2-0.1,0.3c-3.8,7.6-3.7,15.1,0.4,19.5c2.9,3.1,8.6,6,19.8,1.6c9-3.5,14.4-6.3,17.6-8.4
	c12.8,7.5,27.3,11.4,42.2,11.4c46.2,0,83.8-37.6,83.8-83.8C184.7,83.8,180.6,69,172.9,56.1z M100.9,170.8c-14,0-27.6-4-39.2-11.7
	c-1.1-0.7-2.3-1.1-3.5-1.1c-1.5,0-3,0.6-4.1,2c-0.7,0.5-4.8,3.8-17.3,8.6c-4,1.6-5.9,1.5-6.5,1.4c-0.2-0.8-0.1-2.9,1.4-5.9
	C69.8,96.2,144.6,42.5,145.3,42c5-3.6,11.5-8,17.1-10.8c6.8-3.4,8.9-2.6,8.9-2.6c0,0,0,0,0.1,0.1c1.3,2.4-3.2,13.5-10.6,23.7
	c-1.5,2-1.5,4.8-0.2,6.9c7.9,11.8,12,25.5,12,39.8C172.7,138.6,140.5,170.8,100.9,170.8z"/>
<path class="st1" d="M112.1,101.4c-13.4,0-24.4,10.9-24.4,24.4s10.9,24.4,24.4,24.4s24.4-10.9,24.4-24.4S125.5,101.4,112.1,101.4z
	 M112.1,138.1c-6.8,0-12.4-5.6-12.4-12.4c0-6.8,5.5-12.4,12.4-12.4s12.4,5.6,12.4,12.4C124.5,132.6,118.9,138.1,112.1,138.1z
	 M98.2,49.5c0-7.8-6.4-14.2-14.2-14.2c-7.8,0-14.2,6.4-14.2,14.2c0,7.8,6.4,14.2,14.2,14.2S98.2,57.3,98.2,49.5z M81.8,49.5
	c0-1.2,1-2.2,2.2-2.2c1.2,0,2.2,1,2.2,2.2c0,1.2-1,2.2-2.2,2.2C82.8,51.6,81.8,50.7,81.8,49.5z"/>
</svg>
