<?xml version="1.0" encoding="utf-8"?>
<!-- Generator: Adobe Illustrator 26.0.1, SVG Export Plug-In . SVG Version: 6.00 Build 0)  -->
<svg version="1.1" id="图层_1" xmlns="http://www.w3.org/2000/svg" xmlns:xlink="http://www.w3.org/1999/xlink" x="0px" y="0px"
	 viewBox="0 0 200 200" style="enable-background:new 0 0 200 200;" xml:space="preserve">
<style type="text/css">
	.st0{fill:#474A54;}
	.st1{fill:#FFA115;}
</style>
<path class="st0" d="M100,189.9c-3.3,0-6-2.7-6-6v-30.4c0-3.3,2.7-6,6-6s6,2.7,6,6v30.4C106,187.2,103.3,189.9,100,189.9z"/>
<path class="st1" d="M151.9,151.4H53.7c-6.1,0-11-4.9-11-11v-28.3c0-6.1,4.9-11,11-11h98.2c3.4,0,6.7,1.6,8.8,4.4l10.7,14.2
	c3,3.9,3,9.3,0,13.3L160.7,147C158.6,149.8,155.3,151.4,151.9,151.4z"/>
<path class="st0" d="M176.1,116l-10.7-14.2c-3.2-4.2-8.3-6.8-13.6-6.8h-45.1V74.5h40.1c9.4,0,17-7.6,17-17V29.2c0-9.4-7.6-17-17-17
	H48.7c-5.3,0-10.3,2.5-13.5,6.7L24.4,33.1c-4.5,6-4.5,14.5,0,20.5l10.7,14.2c3.2,4.2,8.3,6.8,13.5,6.8h46.1v20.6h-41
	c-9.4,0-17,7.6-17,17v28.3c0,9.4,7.6,17,17,17h98.2c5.3,0,10.4-2.5,13.5-6.8l10.7-14.2C180.7,130.5,180.7,122,176.1,116L176.1,116z
	 M44.7,60.5L34,46.3c-1.3-1.8-1.3-4.2,0-6l10.7-14.2c0.9-1.2,2.4-2,4-2h98.2c2.8,0,5,2.2,5,5v28.3c0,2.7-2.2,5-5,5H48.7
	C47.1,62.5,45.6,61.8,44.7,60.5z M166.6,129.2l-10.7,14.2c-0.9,1.2-2.4,2-4,2H53.7c-2.7,0-5-2.2-5-5v-28.3c0-2.8,2.2-5,5-5h98.2
	c1.5,0,3,0.7,4,2l10.7,14.2C167.9,125,167.9,127.5,166.6,129.2L166.6,129.2z"/>
</svg>
