<?xml version="1.0" encoding="utf-8"?>
<!-- Generator: Adobe Illustrator 26.0.1, SVG Export Plug-In . SVG Version: 6.00 Build 0)  -->
<svg version="1.1" id="图层_1" xmlns="http://www.w3.org/2000/svg" xmlns:xlink="http://www.w3.org/1999/xlink" x="0px" y="0px"
	 viewBox="0 0 200 200" style="enable-background:new 0 0 200 200;" xml:space="preserve">
<style type="text/css">
	.st0{fill:#FFA115;}
	.st1{fill:#474A54;}
</style>
<path class="st0" d="M164.9,166H33.5c-8.3,0-15-6.7-15-15v-27.2h161.5V151C179.9,159.3,173.2,166,164.9,166z"/>
<path class="st1" d="M186.8,63.6v-9c0-14.3-11.7-26-26-26h-122c-14.3,0-26,11.7-26,26v93.3c0,14.3,11.7,26,26,26h122
	c14.3,0,26-11.7,26-26V63.6L186.8,63.6z M38.8,40.6h122c7.7,0,14,6.3,14,14V60l-72.2,38.9c-1.8,1-3.9,1-5.7,0L24.8,60v-5.4
	C24.8,46.9,31.1,40.6,38.8,40.6z M160.8,161.9h-122c-7.7,0-14-6.3-14-14V73.6l66.5,35.8c2.7,1.4,5.6,2.2,8.5,2.2s5.9-0.7,8.5-2.2
	l66.5-35.8v74.2C174.8,155.6,168.5,161.9,160.8,161.9z"/>
</svg>
